<svg width="972" height="877" viewBox="0 0 972 877" fill="none" xmlns="http://www.w3.org/2000/svg">
<path d="M1290.89 1.09625H1315V0H1288.92L1277.74 19.294L1266.56 38.588H1221.85L1199.5 0H1150.84L1134.41 28.2833L1128.27 38.8073H1083.56L1061.42 0H1012.77L990.414 38.8073H945.704L923.349 0H874.913L852.558 38.8073H807.848L785.274 0H736.619L720.182 28.2833L714.045 38.8073H669.335L647.199 0H598.544L576.408 38.8073H531.698L509.124 0H460.688L449.511 19.294L438.333 38.588H393.623L371.268 0H322.613L316.477 10.524L300.258 38.8073H255.548L233.193 0H184.538L162.183 38.8073H117.473L95.1183 0H46.6825L35.505 19.294L24.1083 38.8073H0V40.9998H24.1083L35.2858 60.2938L46.4633 79.5878L35.2858 98.8818L24.1083 118.395H0V120.588H24.1083L35.2858 139.882L46.4633 159.176L35.2858 178.47L24.1083 198.202H0V200.395H24.1083L35.2858 219.689L46.4633 238.983L35.2858 258.277L24.1083 277.571H0V279.763H24.1083L35.2858 299.057L46.4633 318.351L35.2858 337.645L24.1083 356.939H0V359.132H24.1083L35.2858 378.426L46.4633 397.72L35.2858 417.014L24.1083 436.308H0V438.5H24.1083L35.2858 457.794L46.4633 477.088L35.2858 496.382L24.1083 515.676H0V517.869H24.1083L35.2858 537.163L46.4633 556.457L35.2858 575.751L24.1083 595.044H0V597.237H24.1083L35.2858 616.531L46.4633 635.825L35.2858 655.119L24.1083 674.413H0V676.606H24.1083L35.2858 695.9L46.4633 715.194L35.2858 734.488L24.1083 756.413H0V758.605H24.1083L35.2858 777.899L46.4633 797.193L35.2858 816.487L24.1083 835.781H0V837.974H24.1083L35.2858 857.268L46.4633 876.562H95.1183L117.473 837.754H162.183L177.087 863.626L184.538 876.562H233.193L255.548 837.754H300.258L316.696 866.038L322.832 876.562H371.487L393.842 837.754H438.333L449.511 857.048L460.688 876.342H509.124L531.479 837.535H576.408L591.312 863.406L598.763 876.342H647.418L669.773 837.535H714.483L720.62 848.059L737.057 876.342H785.712L808.068 837.535H852.777L875.132 876.342H923.568L945.923 837.535H990.633L1005.54 863.406L1012.99 876.342H1061.64L1084 837.535H1128.71L1134.84 848.059L1151.28 876.342H1199.94L1222.29 837.535H1267L1278.18 856.829L1289.36 876.123H1315V875.027H1290.89L1279.71 855.733L1268.54 836.439L1279.71 817.145L1290.89 797.851H1315V795.658H1290.89L1279.71 776.364L1268.54 757.07L1279.71 737.776L1290.89 718.482H1315V716.29H1290.89L1279.71 696.996L1268.54 677.702L1279.71 658.408L1290.89 639.114H1315V636.921H1290.89L1279.71 617.627L1268.54 598.333L1279.71 579.039L1290.89 559.745H1315V557.553H1290.89L1279.71 538.259L1268.54 518.965L1279.71 499.671L1290.89 480.377H1315V478.184H1290.89L1279.71 458.89L1268.54 439.596L1279.71 420.302L1290.89 401.008H1315V398.816H1290.89L1279.71 379.522L1268.54 360.228L1279.71 340.934L1290.89 321.64H1315V319.447H1290.89L1279.71 300.153L1268.54 280.859L1279.71 261.565L1290.89 242.271H1315V240.079H1290.89L1279.71 220.785L1268.54 201.491L1279.71 182.197L1290.89 162.903H1315V160.71H1290.89L1279.71 141.416L1268.54 122.122L1279.71 102.828L1290.89 83.5342H1315V81.3418H1290.89L1279.71 62.0478L1268.54 42.7538L1279.71 23.4598L1290.89 1.09625ZM1152.82 1.09625H1197.53L1219.88 39.9035L1197.53 78.7108H1152.82L1130.46 39.9035L1152.82 1.09625ZM876.667 397.5L854.312 358.693L876.667 320.105H921.377L943.732 358.912L921.377 397.72H876.667V397.5ZM943.732 438.5L921.377 477.307H876.667L854.312 438.5L876.667 399.693H921.377L943.732 438.5ZM874.694 398.597L852.339 437.404H807.629L785.274 398.597L807.629 359.789H852.339L874.694 398.597ZM805.876 438.5L783.521 477.307H738.592L723.688 451.436L716.237 438.5L738.592 399.693H783.302L805.876 438.5ZM783.302 397.5H738.592L716.237 358.693L738.592 320.105H783.302L805.657 358.912L783.302 397.5ZM720.401 370.313L736.838 398.816L720.401 427.099L714.264 437.623H669.554L647.199 398.816L669.554 360.009H714.483L720.401 370.313ZM667.801 438.5L645.446 477.307H600.517L594.38 466.783L577.943 438.5L594.38 410.217L600.517 399.693H645.227L667.801 438.5ZM645.446 397.5H600.517L594.599 387.196L578.162 358.912L594.599 330.629L600.736 320.105H645.446L667.801 358.912L645.446 397.5ZM598.763 398.597L576.408 437.404H531.698L509.343 398.597L531.698 359.789H576.408L598.763 398.597ZM529.726 438.5L507.371 477.307H462.661L451.483 458.013L440.306 438.719L451.483 419.425L462.661 400.131H507.371L529.726 438.5ZM507.371 397.5H462.661L451.483 378.206L440.306 358.912L451.483 339.618L462.661 320.324H507.371L529.726 359.132L507.371 397.5ZM449.511 379.303L460.688 398.597L449.511 417.891L438.333 437.185H393.623L371.268 398.377L393.623 359.57H438.333L449.511 379.303ZM369.296 397.5H324.586L302.231 358.693L324.586 319.886H369.296L391.651 358.693L369.296 397.5ZM369.296 399.693L391.651 438.5L369.296 477.307H324.586L302.231 438.5L324.586 399.693H369.296ZM369.296 479.5L391.651 518.307L369.296 556.895H324.586L302.231 518.088L324.586 479.281H369.296V479.5ZM371.268 478.404L393.623 439.596H438.333L449.511 458.89L460.688 478.184L449.511 497.478L438.333 516.772H393.623L371.268 478.404ZM451.483 498.794L462.661 479.5H507.371L529.726 518.307L507.371 556.895H462.661L451.483 537.601L440.306 518.307L451.483 498.794ZM509.124 478.404L531.479 439.596H576.408L591.312 465.468L598.763 478.404L576.408 517.211H531.698L509.124 478.404ZM594.599 490.024L600.736 479.5H645.446L667.801 518.307L645.446 556.895H600.517L594.599 546.59L578.162 518.088L594.599 490.024ZM647.199 478.404L669.554 439.596H714.483L720.62 450.12L737.057 478.404L720.62 506.687L714.483 517.211H669.773L647.199 478.404ZM738.592 479.5H783.302L805.657 518.307L783.302 556.895H738.592L716.237 518.088L738.592 479.5ZM785.274 478.404L807.629 439.596H852.339L874.694 478.404L852.339 517.211H807.629L785.274 478.404ZM876.667 479.5H921.377L943.732 518.307L921.377 556.895H876.667L854.312 518.088L876.667 479.5ZM923.349 478.404L945.704 439.596H990.414L1005.32 465.468L1012.77 478.404L990.414 517.211H945.704L923.349 478.404ZM945.704 437.404L923.349 398.597L945.704 359.789H990.414L1012.77 398.597L990.414 437.404H945.704ZM945.704 357.597L923.349 318.789L945.704 279.982H990.414L1005.32 305.854L1012.77 318.789L990.414 357.597H945.704ZM921.377 317.913H876.667L854.312 279.105L876.667 240.298H921.377L943.732 279.105L921.377 317.913ZM874.694 319.009L852.339 357.816H807.629L785.274 319.009L807.629 280.202H852.339L874.694 319.009ZM783.302 317.913H738.592L723.688 292.041L716.237 279.105L738.592 240.298H783.302L805.657 279.105L783.302 317.913ZM720.401 290.506L736.838 318.789L720.401 347.073L714.264 357.597H669.554L647.199 318.789L669.554 279.982H714.483L720.401 290.506ZM645.446 317.913H600.517L594.38 307.389L577.943 279.105L594.38 250.822L600.297 240.517H645.007L667.362 279.325L645.446 317.913ZM591.312 306.073L598.763 319.009L576.408 357.597H531.698L509.343 318.789L531.698 279.982H576.408L591.312 306.073ZM507.371 317.913H462.661L451.483 298.618L440.306 279.325L451.483 260.031L462.661 240.737H507.371L529.726 279.544L507.371 317.913ZM449.511 299.496L460.688 318.789L449.511 338.083L438.333 357.378H393.623L371.268 318.57L393.623 279.763H438.333L449.511 299.496ZM369.296 317.913H324.586L302.231 279.105L324.586 240.298H369.296L391.651 279.105L369.296 317.913ZM316.696 308.485L322.832 319.009L316.696 329.533L300.258 357.816H255.548L233.193 319.009L255.548 280.202H300.258L316.696 308.485ZM300.258 359.789L316.696 388.073L322.613 398.377L316.477 408.901L300.039 437.185H255.329L232.974 398.377L255.329 359.57H300.258V359.789ZM300.258 439.596L316.696 467.88L322.832 478.404L316.696 488.928L300.258 517.211H255.548L233.193 478.404L255.548 439.596H300.258ZM300.258 519.403L316.696 547.906L322.613 558.211L316.477 568.734L300.039 597.018H255.329L232.974 558.211L255.329 519.403H300.258ZM324.586 559.088H369.296L391.651 597.895L369.296 636.702H324.586L302.231 597.895L324.586 559.088ZM371.268 557.991L393.623 519.184H438.333L449.511 538.478L460.688 557.772L449.511 577.066L438.333 596.36H393.623L371.268 557.991ZM451.483 578.601L462.661 559.307H507.371L529.726 598.114L507.371 636.921H462.661L451.483 617.627L440.306 598.333L451.483 578.601ZM509.124 557.991L531.479 519.184H576.408L598.763 557.991L576.408 596.799H531.698L509.124 557.991ZM594.599 569.612L600.736 559.088H645.446L667.801 597.895L645.446 636.702H600.517L594.38 626.178L577.943 597.895L594.599 569.612ZM647.199 557.991L669.554 519.184H714.483L720.401 529.489L736.838 557.991L720.401 586.275L714.264 596.799H669.554L647.199 557.991ZM738.592 559.088H783.302L805.657 597.895L783.302 636.702H738.592L723.688 610.831L716.237 597.895L738.592 559.088ZM785.274 557.991L807.629 519.184H852.339L874.694 557.991L852.339 596.799H807.629L785.274 557.991ZM876.667 559.088H921.377L943.732 597.895L921.377 636.702H876.667L854.312 597.895L876.667 559.088ZM923.349 557.991L945.704 519.184H990.414L1012.77 557.991L990.414 596.799H945.704L923.349 557.991ZM1008.6 569.612L1014.74 559.088H1059.45L1081.81 597.895L1059.45 636.702H1014.74L1008.6 626.178L992.167 597.895L1008.6 569.612ZM1014.74 556.895L1008.82 546.59L992.387 518.088L1008.82 489.805L1014.96 479.281H1059.67L1082.03 518.088L1059.45 556.895H1014.74ZM1014.74 477.307L1008.6 466.783L992.167 438.5L1008.6 410.217L1014.74 399.693H1059.45L1081.81 438.5L1059.45 477.307H1014.74ZM1014.74 397.5L1008.82 387.196L992.387 358.912L1008.82 330.629L1014.96 320.105H1059.67L1082.03 358.912L1059.67 397.72H1014.74V397.5ZM1014.74 317.913L1008.6 307.389L992.167 279.105L1008.6 250.822L1014.52 240.517H1059.23L1081.59 279.325L1059.45 317.913H1014.74ZM1014.74 238.106L1008.6 227.582L992.167 199.298L1008.6 170.796L1014.52 160.491H1059.23L1081.59 199.298L1059.23 238.106H1014.74ZM1005.32 226.266L1012.77 239.202L990.414 278.009H945.704L923.349 239.202L945.704 200.395H990.414L1005.32 226.266ZM921.377 238.106H876.667L854.312 199.298L876.667 160.491H921.377L943.732 199.298L921.377 238.106ZM874.694 239.202L852.339 278.009H807.629L785.274 239.202L807.629 200.395H852.339L874.694 239.202ZM783.302 238.106H738.592L723.688 212.234L716.237 199.298L738.592 160.491H783.302L805.657 199.298L783.302 238.106ZM720.401 210.919L736.838 239.202L720.401 267.704L714.483 278.009H669.773L647.418 239.202L669.773 200.395H714.483L720.401 210.919ZM645.446 238.106H600.517L594.38 227.582L577.943 199.298L594.38 170.796L600.297 160.491H645.007L667.362 199.298L645.446 238.106ZM591.312 226.266L598.763 239.202L576.408 278.009H531.698L509.343 239.202L531.698 200.395H576.408L591.312 226.266ZM507.371 238.106H462.661L451.483 218.812L440.306 199.518L451.483 180.223L462.661 160.93H507.371L529.726 199.737L507.371 238.106ZM449.511 219.908L460.688 239.202L449.511 258.496L438.333 277.79H393.623L371.268 238.983L393.623 200.175H438.333L449.511 219.908ZM369.296 238.106H324.586L302.231 199.298L324.586 160.491H369.296L391.651 199.298L369.296 238.106ZM316.696 228.678L322.832 239.202L316.915 249.507L300.478 277.79H255.767L233.412 238.983L255.767 200.175H300.258L316.696 228.678ZM231.221 238.106H186.511L180.374 227.582L163.937 199.298L180.374 170.796L186.292 160.491H231.002L253.357 199.298L231.221 238.106ZM231.221 240.298L253.576 279.105L231.221 317.913H186.511L180.374 307.389L163.937 279.105L180.374 250.822L186.292 240.517H231.221V240.298ZM231.221 320.105L253.576 358.912L231.221 397.72H186.511L180.593 387.415L164.156 359.132L180.593 330.848L186.73 320.324H231.221V320.105ZM231.221 399.693L253.576 438.5L231.221 477.307H186.511L180.374 466.783L164.156 438.5L180.593 410.217L186.73 399.693H231.221ZM231.221 479.5L253.576 518.307L231.221 556.895H186.511L180.593 546.59L164.156 518.088L180.593 489.805L186.73 479.281H231.221V479.5ZM231.221 559.088L253.576 597.895L231.221 636.702H186.511L180.374 626.178L163.937 597.895L180.374 569.612L186.511 559.088H231.221ZM231.221 638.895L253.576 677.702L231.221 716.509H186.511L180.374 705.985L163.937 677.702L180.374 649.419L186.511 638.895H231.221ZM233.193 637.798L255.548 598.991H300.258L316.696 627.274L322.832 637.798L316.696 648.322L300.258 676.606H255.548L233.193 637.798ZM324.586 638.895H369.296L391.651 677.702L369.296 716.509H324.586L302.231 677.702L324.586 638.895ZM371.268 637.798L393.623 598.991H438.333L449.511 618.285L460.688 637.579L449.511 656.873L438.333 676.167H393.623L371.268 637.798ZM451.483 658.408L462.661 639.114H507.371L529.726 677.921L507.371 716.728H462.661L451.483 697.434L440.306 678.14L451.483 658.408ZM509.124 637.798L531.479 598.991H576.408L591.312 624.863L598.763 637.798L576.408 676.606H531.698L509.124 637.798ZM594.599 649.419L600.736 638.895H645.446L667.801 677.702L645.446 716.509H600.517L594.38 705.985L577.943 677.702L594.599 649.419ZM647.199 637.798L669.554 598.991H714.483L720.62 609.515L737.057 637.798L720.62 666.081L714.483 676.606H669.773L647.199 637.798ZM738.592 638.895H783.302L805.657 677.702L783.302 716.509H738.592L723.688 690.638L716.237 677.702L738.592 638.895ZM785.274 637.798L807.629 598.991H852.339L874.694 637.798L852.339 676.606H807.629L785.274 637.798ZM876.667 638.895H921.377L943.732 677.702L921.377 716.509H876.667L854.312 677.702L876.667 638.895ZM923.349 637.798L945.704 598.991H990.414L1005.32 624.863L1012.77 637.798L990.414 676.606H945.704L923.349 637.798ZM1008.6 649.419L1014.74 638.895H1059.45L1081.81 677.702L1059.45 716.509H1014.74L1008.6 705.985L992.167 677.702L1008.6 649.419ZM1061.42 637.798L1083.78 598.991H1128.49L1134.63 609.515L1151.06 637.798L1134.63 666.081L1128.49 676.606H1083.78L1061.42 637.798ZM1083.78 596.799L1061.42 557.991L1083.78 519.184H1128.49L1134.41 529.489L1150.84 557.991L1134.41 586.275L1128.27 596.799H1083.78ZM1083.78 517.211L1061.42 478.404L1083.78 439.596H1128.49L1134.63 450.12L1151.06 478.404L1134.63 506.687L1128.49 517.211H1083.78ZM1083.78 437.404L1061.42 398.597L1083.78 359.789H1128.49L1134.41 370.094L1150.84 398.597L1134.41 426.88L1128.27 437.404H1083.78ZM1083.78 357.597L1061.42 318.789L1083.78 279.982H1128.49L1134.63 290.506L1151.06 318.789L1134.63 347.073L1128.49 357.597H1083.78ZM1083.78 278.009L1061.42 239.202L1083.78 200.395H1128.49L1134.63 210.919L1151.06 239.202L1134.63 267.704L1128.71 278.009H1083.78ZM1083.78 198.202L1061.42 159.395L1083.78 120.588H1128.49L1134.63 131.112L1151.06 159.395L1134.63 187.678L1128.71 197.983H1083.78V198.202ZM1059.45 158.299H1014.74L1008.6 147.775L992.167 119.491L1008.6 91.208L1014.74 80.684H1059.45L1081.81 119.491L1059.45 158.299ZM1005.32 146.459L1012.77 159.395L990.414 198.202H945.704L923.349 159.395L945.704 120.588H990.414L1005.32 146.459ZM921.377 158.299H876.667L854.312 119.491L876.667 80.9033H921.377L943.732 119.711L921.377 158.299ZM874.694 159.395L852.339 198.202H807.629L785.274 159.395L807.629 120.588H852.339L874.694 159.395ZM783.302 158.299H738.592L723.688 132.427L716.237 119.491L738.592 80.9033H783.302L805.657 119.711L783.302 158.299ZM720.401 131.112L736.838 159.395L720.401 187.678L714.483 197.983H669.773L647.418 159.176L669.554 120.588H714.483L720.401 131.112ZM645.446 158.299H600.517L594.38 147.775L577.943 119.491L594.38 91.208L600.517 80.684H645.227L667.582 119.491L645.446 158.299ZM591.312 146.459L598.763 159.395L576.408 198.202H531.698L509.343 159.395L531.698 120.588H576.408L591.312 146.459ZM507.371 158.299H462.661L451.483 139.005L440.306 119.711L451.483 100.417L462.661 81.1225H507.371L529.726 119.93L507.371 158.299ZM449.511 140.101L460.688 159.395L449.511 178.689L438.333 197.983H393.623L371.268 159.176L393.623 120.588H438.333L449.511 140.101ZM369.296 158.299H324.586L302.231 119.491L324.586 80.684H369.296L391.651 119.491L369.296 158.299ZM316.696 149.09L322.832 159.614L316.915 169.919L300.478 198.421H255.767L233.412 159.614L255.548 120.588H300.258L316.696 149.09ZM231.221 158.299H186.511L180.374 147.775L163.937 119.491L180.374 91.208L186.511 80.684H231.221L253.576 119.491L231.221 158.299ZM177.087 146.459L184.538 159.395L162.183 198.202H117.473L95.1183 159.395L117.473 120.588H162.183L177.087 146.459ZM162.183 200.395L177.087 226.266L184.538 239.202L162.183 278.009H117.473L95.1183 239.202L117.473 200.395H162.183ZM162.183 280.202L177.087 306.073L184.538 319.009L162.183 357.597H117.473L95.1183 318.789L117.473 279.982H162.183V280.202ZM162.183 359.789L184.538 398.597L162.183 437.404H117.473L95.1183 398.597L117.473 359.789H162.183ZM162.183 439.596L177.087 465.468L184.538 478.404L162.183 517.211H117.473L95.1183 478.404L117.473 439.596H162.183ZM162.183 519.403L184.538 558.211L162.183 596.799H117.473L95.1183 557.991L117.473 519.184H162.183V519.403ZM162.183 598.991L177.087 624.863L184.538 637.798L162.183 676.606H117.473L95.1183 637.798L117.473 598.991H162.183ZM162.183 678.798L177.087 704.669L184.538 717.605L162.183 756.413H117.473L95.1183 717.605L117.473 678.798H162.183ZM180.374 729.006L186.511 718.482H231.221L253.576 757.29L231.221 796.097H186.511L180.593 785.792L164.156 757.29L180.374 729.006ZM233.193 717.605L255.548 678.798H300.258L316.696 707.081L322.832 717.605L316.696 728.129L300.258 756.413H255.548L233.193 717.605ZM324.586 718.702H369.296L391.651 757.509L369.296 796.316H324.586L302.231 757.509L324.586 718.702ZM371.268 717.605L393.623 678.798H438.333L449.511 698.092L460.688 717.386L449.511 736.68L438.333 756.413H393.623L371.268 717.605ZM451.483 737.996L462.661 718.702H507.371L529.726 757.509L507.371 796.316H462.661L451.483 777.022L440.306 757.728L451.483 737.996ZM509.124 717.605L531.479 678.798H576.408L591.312 704.669L598.763 717.605L576.408 756.413H531.698L509.124 717.605ZM594.599 729.006L600.736 718.482H645.446L667.801 757.29L645.446 796.097H600.517L594.599 785.792L578.162 757.29L594.599 729.006ZM647.199 717.605L669.554 678.798H714.483L720.62 689.322L737.057 717.605L720.62 745.889L714.483 756.413H669.773L647.199 717.605ZM738.592 718.702H783.302L805.657 757.509L783.302 796.316H738.592L716.237 757.509L738.592 718.702ZM785.274 717.605L807.629 678.798H852.339L874.694 717.605L852.339 756.413H807.629L785.274 717.605ZM876.667 718.702H921.377L943.732 757.509L921.377 796.316H876.667L854.312 757.509L876.667 718.702ZM923.349 717.605L945.704 678.798H990.414L1005.32 704.669L1012.77 717.605L990.414 756.413H945.704L923.349 717.605ZM1008.6 729.006L1014.74 718.482H1059.45L1081.81 757.29L1059.45 796.097H1014.74L1008.82 785.792L992.387 757.29L1008.6 729.006ZM1061.42 717.605L1083.78 678.798H1128.49L1134.63 689.322L1151.06 717.605L1134.63 745.889L1128.49 756.413H1083.78L1061.42 717.605ZM1152.82 718.702H1197.53L1219.88 757.509L1197.53 796.316H1152.82L1130.46 757.509L1152.82 718.702ZM1152.82 716.509L1137.91 690.638L1130.46 677.702L1152.82 638.895H1197.53L1219.88 677.702L1197.53 716.509H1152.82ZM1152.82 636.702L1137.91 610.831L1130.46 597.895L1152.82 559.088H1197.53L1219.88 597.895L1197.53 636.702H1152.82ZM1152.82 556.895L1130.46 518.088L1152.82 479.281H1197.53L1219.88 518.088L1197.53 556.895H1152.82ZM1152.82 477.307L1137.91 451.436L1130.46 438.5L1152.82 399.693H1197.53L1219.88 438.5L1197.53 477.307H1152.82ZM1152.82 397.5L1130.46 358.693L1152.82 320.105H1197.53L1219.88 358.912L1197.53 397.72H1152.82V397.5ZM1152.82 317.913L1137.91 292.041L1130.46 279.105L1152.82 240.298H1197.53L1219.88 279.105L1197.53 317.913H1152.82ZM1152.82 238.106L1137.91 212.234L1130.46 199.298L1152.82 160.491H1197.53L1219.88 199.298L1197.53 238.106H1152.82ZM1152.82 158.299L1137.91 132.427L1130.46 119.491L1152.82 80.9033H1197.53L1219.88 119.711L1197.53 158.518H1152.82V158.299ZM1128.49 40.9998L1134.41 51.3045L1150.84 79.5878L1134.41 107.871L1128.27 118.395H1083.56L1061.2 79.5878L1083.56 40.7805H1128.49V40.9998ZM1008.6 11.6203L1014.74 1.09625H1059.45L1081.81 39.9035L1059.45 78.7108H1014.74L1008.82 68.406L992.387 39.9035L1008.6 11.6203ZM990.414 40.9998L1012.77 79.807L990.414 118.395H945.704L923.349 79.5878L945.704 40.7805H990.414V40.9998ZM876.667 1.09625H921.377L943.732 39.9035L921.377 78.7108H876.667L854.312 39.9035L876.667 1.09625ZM852.339 40.9998L874.694 79.807L852.339 118.395H807.629L785.274 79.5878L807.629 40.7805H852.339V40.9998ZM738.592 1.09625H783.302L805.657 39.9035L783.302 78.7108H738.592L716.237 39.9035L738.592 1.09625ZM714.483 40.9998L720.401 51.3045L736.838 79.5878L720.401 107.871L714.483 118.395H669.773L647.418 79.5878L669.773 40.7805H714.483V40.9998ZM594.599 11.6203L600.736 1.09625H645.446L667.801 39.9035L645.446 78.7108H600.517L594.599 68.406L578.162 39.9035L594.599 11.6203ZM576.408 40.9998L598.763 79.807L576.408 118.395H531.698L509.343 79.5878L531.698 40.7805H576.408V40.9998ZM451.483 20.3903L462.661 1.09625H507.371L529.726 39.9035L507.371 78.7108H462.661L451.483 59.1975L440.306 39.9035L451.483 20.3903ZM438.333 40.9998L449.511 60.2938L460.688 79.5878L449.511 98.8818L438.333 118.395H393.623L371.268 79.5878L393.623 40.7805H438.333V40.9998ZM324.586 1.09625H369.296L391.651 39.9035L369.296 78.7108H324.586L302.231 39.9035L324.586 1.09625ZM300.258 40.9998L316.696 69.5023L322.613 79.807L316.477 90.331L300.258 118.395H255.548L233.193 79.5878L255.548 40.7805H300.258V40.9998ZM180.374 11.6203L186.511 1.09625H231.221L253.576 39.9035L231.221 78.7108H186.511L180.593 68.406L164.156 39.9035L180.374 11.6203ZM162.183 40.9998L184.538 79.807L162.183 118.395H117.473L95.1183 79.807L117.473 40.9998H162.183ZM37.2583 59.1975L26.0808 39.9035L37.2583 20.3903L48.4358 1.09625H93.1458L115.501 39.9035L93.1458 78.7108H48.4358L37.2583 59.1975ZM37.2583 139.005L26.0808 119.711L37.2583 100.417L48.4358 81.1225H93.1458L115.501 119.93L93.1458 158.299H48.4358L37.2583 139.005ZM37.2583 218.812L26.0808 199.518L37.2583 180.223L48.4358 160.93H93.1458L115.501 199.737L93.1458 238.544H48.4358L37.2583 218.812ZM37.2583 298.399L26.0808 279.105L37.2583 259.811L48.4358 240.517H93.1458L115.501 279.325L93.1458 317.913H48.4358L37.2583 298.399ZM37.2583 378.206L26.0808 358.912L37.2583 339.618L48.4358 320.324H93.1458L115.501 359.132L93.1458 397.939H48.4358L37.2583 378.206ZM37.2583 457.794L26.0808 438.5L37.2583 419.206L48.4358 399.912H93.1458L115.501 438.5L93.1458 477.307H48.4358L37.2583 457.794ZM37.2583 537.601L26.0808 518.307L37.2583 499.013L48.4358 479.719H93.1458L115.501 518.526L93.1458 556.895H48.4358L37.2583 537.601ZM37.2583 617.408L26.0808 598.114L37.2583 578.82L48.4358 559.526H93.1458L115.501 598.333L93.1458 637.141H48.4358L37.2583 617.408ZM37.2583 696.996L26.0808 677.702L37.2583 658.408L48.4358 639.114H93.1458L115.501 677.921L93.1458 716.728H48.4358L37.2583 696.996ZM37.2583 776.803L26.0808 757.509L37.2583 738.215L48.4358 718.921H93.1458L115.501 757.728L93.1458 796.535H48.4358L37.2583 776.803ZM93.1458 875.904H48.4358L37.2583 856.61L26.0808 837.316L37.2583 817.803L48.4358 798.509H93.1458L115.501 837.316L93.1458 875.904ZM117.473 836L95.1183 797.193L117.473 758.605H162.183L184.538 797.412L162.183 836H117.473ZM231.221 875.904H186.511L180.374 865.38L163.937 837.096L180.374 808.813L186.511 798.289H231.221L253.576 837.096L231.221 875.904ZM255.548 836L233.193 797.193L255.548 758.386H300.258L316.696 786.888L322.613 797.193L316.477 807.717L300.039 836H255.548ZM369.296 875.904H324.586L302.231 837.096L324.586 798.289H369.296L391.651 837.096L369.296 875.904ZM393.623 836L371.268 797.193L393.623 758.386H438.333L449.511 777.68L460.688 796.974L449.511 816.268L438.333 835.562H393.623V836ZM507.371 875.904H462.661L451.483 856.61L440.306 837.316L451.483 818.022L462.661 798.728H507.371L529.726 837.535L507.371 875.904ZM531.698 836L509.343 797.193L531.698 758.386H576.408L598.763 797.193L576.408 836H531.698ZM645.446 875.904H600.517L594.38 865.38L577.943 837.096L594.38 808.813L600.517 798.289H645.227L667.582 837.096L645.446 875.904ZM669.554 836L647.199 797.193L669.554 758.386H714.483L720.401 768.691L736.838 797.193L720.401 825.476L714.264 836H669.554ZM783.302 875.904H738.592L723.688 850.032L716.237 837.096L738.592 798.289H783.302L805.657 837.096L783.302 875.904ZM807.629 836L785.274 797.193L807.629 758.386H852.339L874.694 797.193L852.339 836H807.629ZM921.377 875.904H876.667L854.312 837.096L876.667 798.289H921.377L943.732 837.096L921.377 875.904ZM945.704 836L923.349 797.193L945.704 758.386H990.414L1012.77 797.193L990.414 836H945.704ZM1059.45 875.904H1014.74L1008.6 865.38L992.167 837.096L1008.6 808.813L1014.74 798.289H1059.45L1081.81 837.096L1059.45 875.904ZM1083.78 836L1061.42 797.193L1083.78 758.386H1128.49L1134.41 768.691L1150.84 797.193L1134.41 825.476L1128.27 836H1083.78ZM1197.53 875.904H1152.82L1137.91 850.032L1130.46 837.096L1152.82 798.289H1197.53L1219.88 837.096L1197.53 875.904ZM1277.74 777.899L1288.92 797.193L1277.74 816.487L1266.56 835.781H1221.85L1199.5 796.974L1221.85 758.167H1266.56L1277.74 777.899ZM1277.74 698.092L1288.92 717.386L1277.74 736.68L1266.56 755.974H1221.85L1199.5 717.167L1221.85 678.359H1266.56L1277.74 698.092ZM1277.74 618.504L1288.92 637.798L1277.74 657.092L1266.56 676.386H1221.85L1199.5 637.579L1221.85 598.772H1266.56L1277.74 618.504ZM1277.74 538.697L1288.92 557.991L1277.74 577.285L1266.56 596.579H1221.85L1199.5 557.772L1221.85 518.965H1266.56L1277.74 538.697ZM1277.74 458.89L1288.92 478.184L1277.74 497.698L1266.56 516.992H1221.85L1199.5 478.184L1221.85 439.377H1266.56L1277.74 458.89ZM1277.74 379.303L1288.92 398.597L1277.74 417.891L1266.56 437.185H1221.85L1199.5 398.377L1221.85 359.57H1266.56L1277.74 379.303ZM1277.74 299.496L1288.92 318.789L1277.74 338.083L1266.56 357.378H1221.85L1199.5 318.57L1221.85 279.763H1266.56L1277.74 299.496ZM1277.74 219.908L1288.92 239.202L1277.74 258.496L1266.56 277.79H1221.85L1199.5 238.983L1221.85 200.175H1266.56L1277.74 219.908ZM1277.74 140.101L1288.92 159.395L1277.74 178.689L1266.56 197.983H1221.85L1199.5 159.176L1221.85 120.588H1266.56L1277.74 140.101ZM1277.74 60.2938L1288.92 79.5878L1277.74 98.8818L1266.56 118.176H1221.85L1199.5 79.3685L1221.85 40.5613H1266.56L1277.74 60.2938Z" fill="url(#paint0_linear_103_313)"/>
<defs>
<linearGradient id="paint0_linear_103_313" x1="657.5" y1="7.12453" x2="657.5" y2="864.304" gradientUnits="userSpaceOnUse">
<stop stop-color="#E2F3EE" stop-opacity="0.21"/>
<stop offset="0.520833" stop-color="#DFEFEA"/>
<stop offset="1" stop-color="#E2F3EE" stop-opacity="0.21"/>
</linearGradient>
</defs>
</svg>
