<svg width="953" height="420" viewBox="0 0 953 420" fill="none" xmlns="http://www.w3.org/2000/svg">
<g clip-path="url(#clip0_320_588)">
<mask id="mask0_320_588" style="mask-type:alpha" maskUnits="userSpaceOnUse" x="191" y="102" width="955" height="406">
<rect opacity="0.8" x="191" y="102" width="955" height="406" fill="white"/>
</mask>
<g mask="url(#mask0_320_588)">
<g opacity="0.29">
<path d="M224 420.45L269.771 396.743L315.55 420.45V467.871L269.771 491.578M315.55 420.45L269.771 396.743V349.322M315.55 325.608L361.329 349.322V396.743M407.1 420.45L361.329 396.743V349.322M452.879 396.743V349.322L407.1 325.608M544.429 396.743L590.208 420.45V467.871L544.429 491.578L498.658 467.871V420.45M498.658 420.45L452.879 396.743V349.322L498.658 325.608L544.429 349.322V396.743M544.429 207.06L590.208 183.353L635.986 207.06V254.481L590.208 278.188L544.429 254.481M681.788 325.608V278.188L727.559 254.481L773.338 278.188V325.608L727.559 349.322M544.451 396.743V349.322L590.23 325.608L636.009 349.322V396.743L590.23 420.45M681.788 -6.33042L727.559 -30.0375L773.338 -6.33042V41.0904L727.559 64.8041L681.788 41.0904M727.559 112.218L773.338 135.932V183.353L727.559 207.06L681.788 183.353M681.788 278.188L636.009 254.481V207.06L681.788 183.353L727.559 207.06V254.481M727.559 349.322V396.743L681.788 420.45L636.009 396.743V349.322L681.788 325.608M681.788 467.871V420.45L727.559 396.743L773.338 420.45V467.871L727.559 491.578M864.888 -148.586V-101.165L819.064 -77.4449M819.064 64.8175V112.232L773.285 135.945L727.507 112.232V64.8041L773.285 41.0904M727.507 254.481V207.06L773.285 183.353L819.064 207.06V254.481L773.285 278.188M819.064 -77.4449V-30.0241L773.285 -6.31704L727.507 -30.0241V-77.4449M864.835 -6.31704L819.064 -30.0375V-77.4449L864.835 -101.152L910.644 -77.4449V-30.0241M956.445 135.932V183.353L910.666 207.06L864.888 183.353V135.932L910.666 112.218M910.666 254.481L956.445 278.188V325.608L910.666 349.322L864.888 325.608M864.888 325.608L910.666 349.322V396.743L864.888 420.45L819.064 396.743M407.1 420.45V467.871L361.329 491.578L315.55 467.871V420.45L361.329 396.743L407.1 420.45ZM498.658 420.45V467.871L452.879 491.578L407.1 467.871V420.45L452.879 396.743L498.658 420.45ZM590.208 278.188V325.608L544.429 349.322L498.658 325.608V278.188L544.429 254.481L590.208 278.188ZM864.865 278.188V325.608L819.064 349.322L773.285 325.608V278.188L819.064 254.481L864.865 278.188ZM681.788 278.188V325.608L636.009 349.322L590.23 325.608V278.188L636.009 254.481L681.788 278.188ZM681.788 420.45V467.871L636.009 491.578L590.23 467.871V420.45L636.009 396.743L681.788 420.45ZM773.338 -101.165V-148.586L819.064 -172.3L864.835 -148.586V-101.165L819.064 -77.4449L773.338 -101.165ZM956.423 -6.31704V41.0904L910.644 64.8041L864.865 41.0904V-6.33042L910.644 -30.0375L956.423 -6.31704ZM681.788 135.932V183.353L636.009 207.06L590.23 183.353V135.932L636.009 112.218L681.788 135.932ZM910.666 64.8041V112.218L864.888 135.932L819.064 112.218V64.8041L864.835 41.0904L910.666 64.8041ZM956.393 420.45V467.871L910.614 491.578L864.835 467.871V420.45L910.614 396.743L956.393 420.45Z" stroke="#84CDB3" stroke-width="1.54" stroke-linecap="round" stroke-linejoin="round"/>
<path d="M727.536 -78.71V-76.2067M269.771 349.322V351.832M683.936 -7.71598L681.758 -6.59154M545.518 206.497L543.347 207.622M226.171 419.325L224 420.45M317.729 326.746L315.55 325.615M682.847 41.6592L680.676 40.5348M820.191 397.312L818.02 396.181M409.279 326.739L407.1 325.608M500.836 326.739L498.658 325.608V323.661M498.658 323.661V325.608L496.479 326.739M821.302 255.612L819.131 254.48V252.526M819.131 252.526V254.48L816.953 255.612M588.066 277.03L590.245 278.161V280.108M590.245 280.108V278.161L592.423 277.03M679.624 419.292L681.795 420.416V422.371M681.795 422.371V420.416L683.974 419.292M862.724 419.292L864.903 420.416V422.371M864.903 422.371V420.416L867.081 419.292M862.724 134.767L864.903 135.898V137.853M864.903 137.853V135.932L867.081 134.801M771.137 -7.45494L773.315 -6.3305V-4.3761M773.315 -4.3761V-6.3305L775.494 -7.45494" stroke="#46484A" stroke-width="3.86" stroke-linecap="round" stroke-linejoin="round"/>
</g>
</g>
</g>
<defs>
<clipPath id="clip0_320_588">
<rect width="953" height="420" fill="white"/>
</clipPath>
</defs>
</svg>
