<svg width="360" height="642" viewBox="0 0 360 642" fill="none" xmlns="http://www.w3.org/2000/svg">
<g opacity="0.5" clip-path="url(#clip0_226_7167)">
<g opacity="0.29">
<path d="M-19.1934 487.157L12.4391 503.541L44.0768 487.157V454.384L12.4391 438M44.0768 487.157L12.4391 503.541V536.314M44.0768 552.702L75.7145 536.314V503.541M107.347 487.157L75.7145 503.541V536.314M138.985 503.541V536.314L107.347 552.702M202.255 503.541L233.893 487.157V454.384L202.255 438L170.622 454.384V487.157M170.622 487.157L138.985 503.541V536.314L170.622 552.702L202.255 536.314V503.541M202.255 634.632L233.893 651.016L265.53 634.632V601.859L233.893 585.475L202.255 601.859M297.183 552.702V585.475L328.816 601.859L360.454 585.475V552.702L328.816 536.314M202.27 503.541V536.314L233.908 552.702L265.546 536.314V503.541L233.908 487.157M297.183 782.107L328.816 798.491L360.454 782.107V749.334L328.816 732.946L297.183 749.334M328.816 700.178L360.454 683.789V651.016L328.816 634.632L297.183 651.016M297.183 585.475L265.546 601.859V634.632L297.183 651.016L328.816 634.632V601.859M328.816 536.314V503.541L297.183 487.157L265.546 503.541V536.314L297.183 552.702M297.183 454.384V487.157L328.816 503.541L360.454 487.157V454.384L328.816 438M423.724 880.421V847.648L392.055 831.255M392.055 732.936V700.168L360.417 683.78L328.78 700.168V732.946L360.417 749.334M328.78 601.859V634.632L360.417 651.016L392.055 634.632V601.859L360.417 585.475M392.055 831.255V798.482L360.417 782.098L328.78 798.482V831.255M423.688 782.098L392.055 798.491V831.255L423.688 847.639L455.346 831.255V798.482M486.999 683.789V651.016L455.361 634.632L423.724 651.016V683.789L455.361 700.178M455.361 601.859L486.999 585.475V552.702L455.361 536.314L423.724 552.702M423.724 552.702L455.361 536.314V503.541L423.724 487.157L392.055 503.541M107.347 487.157V454.384L75.7145 438L44.0768 454.384V487.157L75.7145 503.541L107.347 487.157ZM170.622 487.157V454.384L138.985 438L107.347 454.384V487.157L138.985 503.541L170.622 487.157ZM233.893 585.475V552.702L202.255 536.314L170.622 552.702V585.475L202.255 601.859L233.893 585.475ZM423.708 585.475V552.702L392.055 536.314L360.417 552.702V585.475L392.055 601.859L423.708 585.475ZM297.183 585.475V552.702L265.546 536.314L233.908 552.702V585.475L265.546 601.859L297.183 585.475ZM297.183 487.157V454.384L265.546 438L233.908 454.384V487.157L265.546 503.541L297.183 487.157ZM360.454 847.648V880.421L392.055 896.81L423.688 880.421V847.648L392.055 831.255L360.454 847.648ZM486.984 782.098V749.334L455.346 732.946L423.708 749.334V782.107L455.346 798.491L486.984 782.098ZM297.183 683.789V651.016L265.546 634.632L233.908 651.016V683.789L265.546 700.178L297.183 683.789ZM455.361 732.946V700.178L423.724 683.789L392.055 700.178V732.946L423.688 749.334L455.361 732.946ZM486.963 487.157V454.384L455.325 438L423.688 454.384V487.157L455.325 503.541L486.963 487.157Z" stroke="#84CDB3" stroke-width="1.54" stroke-linecap="round" stroke-linejoin="round"/>
<path d="M328.8 832.13V830.4M12.4392 536.314V534.58M298.668 783.066L297.163 782.288M203.008 635.021L201.507 634.244M-17.6929 487.935L-19.1934 487.158M45.5824 551.917L44.0768 552.698M297.916 748.942L296.415 749.719M392.834 503.148L391.333 503.93M108.853 551.921L107.347 552.703M172.128 551.921L170.622 552.703V554.049M170.622 554.049V552.703L169.117 551.921M393.602 601.078L392.102 601.86V603.211M392.102 603.211V601.86L390.596 601.078M232.413 586.276L233.918 585.494V584.148M233.918 584.148V585.494L235.424 586.276M295.688 487.958L297.189 487.181V485.83M297.189 485.83V487.181L298.694 487.958M422.229 487.958L423.734 487.181V485.83M423.734 485.83V487.181L425.24 487.958M422.229 684.595L423.734 683.813V682.462M423.734 682.462V683.79L425.24 684.571M358.933 782.885L360.438 782.108V780.757M360.438 780.757V782.108L361.944 782.885" stroke="#46484A" stroke-width="3.86" stroke-linecap="round" stroke-linejoin="round"/>
</g>
<g opacity="0.29">
<path d="M45.8066 350.18L77.4391 333.796L109.077 350.18V382.953L77.4391 399.337M109.077 350.18L77.4391 333.796V301.024M109.077 284.635L140.714 301.024V333.796M172.347 350.18L140.714 333.796V301.024M203.985 333.796V301.024L172.347 284.635M267.255 333.796L298.893 350.18V382.953L267.255 399.337L235.622 382.953V350.18M235.622 350.18L203.985 333.796V301.024L235.622 284.635L267.255 301.024V333.796M267.255 202.706L298.893 186.323L330.53 202.706V235.479L298.893 251.863L267.255 235.479M362.183 284.635V251.863L393.816 235.479L425.454 251.863V284.635L393.816 301.024M267.27 333.796V301.024L298.908 284.635L330.546 301.024V333.796L298.908 350.18M362.183 55.2326L393.816 38.8487L425.454 55.2326V88.0051L393.816 104.394L362.183 88.0051M393.816 137.161L425.454 153.55V186.323L393.816 202.706L362.183 186.323M362.183 251.863L330.546 235.479V202.706L362.183 186.323L393.816 202.706V235.479M393.816 301.024V333.796L362.183 350.18L330.546 333.796V301.024L362.183 284.635M362.183 382.953V350.18L393.816 333.796L425.454 350.18V382.953L393.816 399.337M488.724 -43.0802V-10.3077L457.055 6.08546M457.055 104.403V137.171L425.417 153.559L393.78 137.171V104.394L425.417 88.0051M393.78 235.479V202.706L425.417 186.323L457.055 202.706V235.479L425.417 251.863M457.055 6.08546V38.8579L425.417 55.2419L393.78 38.8579V6.08546M488.688 55.2419L457.055 38.8487V6.08546L488.688 -10.2985L520.346 6.08546V38.8579M551.999 153.55V186.323L520.361 202.706L488.724 186.323V153.55L520.361 137.161M520.361 235.479L551.999 251.863V284.635L520.361 301.024L488.724 284.635M488.724 284.635L520.361 301.024V333.796L488.724 350.18L457.055 333.796M172.347 350.18V382.953L140.714 399.337L109.077 382.953V350.18L140.714 333.796L172.347 350.18ZM235.622 350.18V382.953L203.985 399.337L172.347 382.953V350.18L203.985 333.796L235.622 350.18ZM298.893 251.863V284.635L267.255 301.024L235.622 284.635V251.863L267.255 235.479L298.893 251.863ZM488.708 251.863V284.635L457.055 301.024L425.417 284.635V251.863L457.055 235.479L488.708 251.863ZM362.183 251.863V284.635L330.546 301.024L298.908 284.635V251.863L330.546 235.479L362.183 251.863ZM362.183 350.18V382.953L330.546 399.337L298.908 382.953V350.18L330.546 333.796L362.183 350.18ZM425.454 -10.3077V-43.0802L457.055 -59.4688L488.688 -43.0802V-10.3077L457.055 6.08546L425.454 -10.3077ZM551.984 55.2419V88.0051L520.346 104.394L488.708 88.0051V55.2326L520.346 38.8487L551.984 55.2419ZM362.183 153.55V186.323L330.546 202.706L298.908 186.323V153.55L330.546 137.161L362.183 153.55ZM520.361 104.394V137.161L488.724 153.55L457.055 137.161V104.394L488.688 88.0051L520.361 104.394ZM551.963 350.18V382.953L520.325 399.337L488.688 382.953V350.18L520.325 333.796L551.963 350.18Z" stroke="#84CDB3" stroke-width="1.54" stroke-linecap="round" stroke-linejoin="round"/>
<path d="M393.8 5.20996V6.93995M77.4392 301.023V302.757M363.668 54.2739L362.163 55.051M268.008 202.317L266.507 203.094M47.3071 349.402L45.8066 350.179M110.582 285.42L109.077 284.639M362.916 88.397L361.415 87.6199M457.834 334.188L456.333 333.407M173.853 285.416L172.347 284.634M237.128 285.416L235.622 284.634V283.288M235.622 283.288V284.634L234.117 285.416M458.602 236.259L457.102 235.478V234.127M457.102 234.127V235.478L455.596 236.259M297.413 251.061L298.918 251.843V253.189M298.918 253.189V251.843L300.424 251.061M360.688 349.379L362.189 350.156V351.507M362.189 351.507V350.156L363.694 349.379M487.229 349.379L488.734 350.156V351.507M488.734 351.507V350.156L490.24 349.379M487.229 152.744L488.734 153.526V154.876M488.734 154.876V153.549L490.24 152.767M423.933 54.4543L425.438 55.2314V56.5821M425.438 56.5821V55.2314L426.944 54.4543" stroke="#46484A" stroke-width="3.86" stroke-linecap="round" stroke-linejoin="round"/>
</g>
</g>
<defs>
<clipPath id="clip0_226_7167">
<rect width="768" height="827" fill="white" transform="translate(-150)"/>
</clipPath>
</defs>
</svg>
