<svg width="768" height="481" viewBox="0 0 768 481" fill="none" xmlns="http://www.w3.org/2000/svg">
<g clip-path="url(#clip0_226_7021)">
<mask id="mask0_226_7021" style="mask-type:alpha" maskUnits="userSpaceOnUse" x="222" y="-33" width="955" height="406">
<rect opacity="0.8" x="222" y="-33" width="955" height="406" fill="white"/>
</mask>
<g mask="url(#mask0_226_7021)">
<g opacity="0.29">
<path d="M255 285.45L300.771 261.743L346.55 285.45V332.871L300.771 356.578M346.55 285.45L300.771 261.743V214.322M346.55 190.608L392.329 214.322V261.743M438.1 285.45L392.329 261.743V214.322M483.879 261.743V214.322L438.1 190.608M575.429 261.743L621.208 285.45V332.871L575.429 356.578L529.658 332.871V285.45M529.658 285.45L483.879 261.743V214.322L529.658 190.608L575.429 214.322V261.743M575.429 72.0598L621.208 48.3527L666.986 72.0598V119.481L621.208 143.188L575.429 119.481M712.788 190.608V143.188L758.559 119.481L804.338 143.188V190.608L758.559 214.322M575.451 261.743V214.322L621.23 190.608L667.009 214.322V261.743L621.23 285.45M712.788 -141.33L758.559 -165.037L804.338 -141.33V-93.9096L758.559 -70.1959L712.788 -93.9096M758.559 -22.7818L804.338 0.931915V48.3527L758.559 72.0598L712.788 48.3527M712.788 143.188L667.009 119.481V72.0598L712.788 48.3527L758.559 72.0598V119.481M758.559 214.322V261.743L712.788 285.45L667.009 261.743V214.322L712.788 190.608M712.788 332.871V285.45L758.559 261.743L804.338 285.45V332.871L758.559 356.578M895.888 -283.586V-236.165L850.064 -212.445M850.064 -70.1825V-22.7684L804.285 0.945314L758.507 -22.7684V-70.1959L804.285 -93.9096M758.507 119.481V72.0598L804.285 48.3527L850.064 72.0598V119.481L804.285 143.188M850.064 -212.445V-165.024L804.285 -141.317L758.507 -165.024V-212.445M895.835 -141.317L850.064 -165.037V-212.445L895.835 -236.152L941.644 -212.445V-165.024M987.445 0.931915V48.3527L941.666 72.0598L895.888 48.3527V0.931915L941.666 -22.7818M941.666 119.481L987.445 143.188V190.608L941.666 214.322L895.888 190.608M895.888 190.608L941.666 214.322V261.743L895.888 285.45L850.064 261.743M438.1 285.45V332.871L392.329 356.578L346.55 332.871V285.45L392.329 261.743L438.1 285.45ZM529.658 285.45V332.871L483.879 356.578L438.1 332.871V285.45L483.879 261.743L529.658 285.45ZM621.208 143.188V190.608L575.429 214.322L529.658 190.608V143.188L575.429 119.481L621.208 143.188ZM895.865 143.188V190.608L850.064 214.322L804.285 190.608V143.188L850.064 119.481L895.865 143.188ZM712.788 143.188V190.608L667.009 214.322L621.23 190.608V143.188L667.009 119.481L712.788 143.188ZM712.788 285.45V332.871L667.009 356.578L621.23 332.871V285.45L667.009 261.743L712.788 285.45ZM804.338 -236.165V-283.586L850.064 -307.3L895.835 -283.586V-236.165L850.064 -212.445L804.338 -236.165ZM987.423 -141.317V-93.9096L941.644 -70.1959L895.865 -93.9096V-141.33L941.644 -165.037L987.423 -141.317ZM712.788 0.931915V48.3527L667.009 72.0598L621.23 48.3527V0.931915L667.009 -22.7818L712.788 0.931915ZM941.666 -70.1959V-22.7818L895.888 0.931915L850.064 -22.7818V-70.1959L895.835 -93.9096L941.666 -70.1959ZM987.393 285.45V332.871L941.614 356.578L895.835 332.871V285.45L941.614 261.743L987.393 285.45Z" stroke="#84CDB3" stroke-width="1.54" stroke-linecap="round" stroke-linejoin="round"/>
<path d="M758.536 -213.71V-211.207M300.771 214.322V216.832M714.936 -142.716L712.758 -141.592M576.518 71.4975L574.347 72.6219M257.171 284.325L255 285.45M348.729 191.746L346.55 190.615M713.847 -93.3408L711.676 -94.4652M851.191 262.312L849.02 261.181M440.279 191.739L438.1 190.608M531.836 191.739L529.658 190.608V188.661M529.658 188.661V190.608L527.479 191.739M852.302 120.612L850.131 119.48V117.526M850.131 117.526V119.48L847.953 120.612M619.066 142.03L621.245 143.161V145.108M621.245 145.108V143.161L623.423 142.03M710.624 284.292L712.795 285.416V287.371M712.795 287.371V285.416L714.974 284.292M893.724 284.292L895.903 285.416V287.371M895.903 287.371V285.416L898.081 284.292M893.724 -0.232738L895.903 0.898402V2.85278M895.903 2.85278V0.931859L898.081 -0.199281M802.137 -142.455L804.315 -141.33V-139.376M804.315 -139.376V-141.33L806.494 -142.455" stroke="#46484A" stroke-width="3.86" stroke-linecap="round" stroke-linejoin="round"/>
</g>
</g>
<mask id="mask1_226_7021" style="mask-type:alpha" maskUnits="userSpaceOnUse" x="87" y="179" width="955" height="406">
<rect opacity="0.8" x="87" y="179" width="955" height="406" fill="white"/>
</mask>
<g mask="url(#mask1_226_7021)">
<g opacity="0.29">
<path d="M437.999 479.141L483.771 502.852L529.55 479.141V431.711L483.771 408M529.55 479.141L483.771 502.852L483.771 550.282M529.55 574L575.329 550.282L575.329 502.852M621.1 479.141L575.329 502.852L575.329 550.282M666.879 502.852L666.879 550.282L621.1 574M758.43 502.852L804.209 479.141V431.711L758.43 408L712.658 431.711V479.141M712.658 479.141L666.879 502.852L666.879 550.282L712.658 574L758.43 550.282V502.852M758.43 692.57L804.209 716.282L849.988 692.57V645.141L804.209 621.43L758.43 645.141M895.79 574V621.43L941.561 645.141L987.34 621.43V574L941.561 550.282M758.452 502.852V550.282L804.231 574L850.011 550.282V502.852L804.231 479.141M895.79 906L941.561 929.711L987.34 906L987.34 858.57L941.561 834.852L895.79 858.57M941.561 787.43L987.34 763.711V716.282L941.561 692.57L895.79 716.282M895.79 621.43L850.011 645.141V692.57L895.79 716.282L941.561 692.57V645.141M941.561 550.282V502.852L895.79 479.141L850.011 502.852V550.282L895.79 574M895.79 431.711V479.141L941.561 502.852L987.34 479.141L987.34 431.711L941.561 408M1078.89 1048.28V1000.85L1033.07 977.128M1033.07 834.839V787.416L987.288 763.698L941.509 787.416V834.852L987.288 858.57M941.509 645.141V692.57L987.288 716.282L1033.07 692.57V645.141L987.288 621.43M1033.07 977.128V929.698L987.288 905.987L941.509 929.698V977.128M1078.84 905.987L1033.07 929.711V977.128L1078.84 1000.84L1124.65 977.128V929.698M1170.45 763.711V716.282L1124.67 692.57L1078.89 716.282V763.711L1124.67 787.43M1124.67 645.141L1170.45 621.43V574L1124.67 550.282L1078.89 574M1078.89 574L1124.67 550.282V502.852L1078.89 479.141L1033.07 502.852M621.1 479.141V431.711L575.329 408L529.55 431.711V479.141L575.329 502.852L621.1 479.141ZM712.658 479.141V431.711L666.879 408L621.1 431.711V479.141L666.879 502.852L712.658 479.141ZM804.209 621.43V574L758.43 550.282L712.658 574V621.43L758.43 645.141L804.209 621.43ZM1078.87 621.43V574L1033.07 550.282L987.288 574V621.43L1033.07 645.141L1078.87 621.43ZM895.79 621.43V574L850.011 550.282L804.231 574V621.43L850.011 645.141L895.79 621.43ZM895.79 479.141V431.711L850.011 408L804.231 431.711V479.141L850.011 502.852L895.79 479.141ZM987.34 1000.85V1048.28L1033.07 1072L1078.84 1048.28V1000.85L1033.07 977.128L987.34 1000.85ZM1170.43 905.987V858.57L1124.65 834.852L1078.87 858.57V906L1124.65 929.711L1170.43 905.987ZM895.79 763.711V716.282L850.011 692.57L804.231 716.282V763.711L850.011 787.43L895.79 763.711ZM1124.67 834.852V787.43L1078.89 763.711L1033.07 787.43V834.852L1078.84 858.57L1124.67 834.852ZM1170.4 479.141L1170.4 431.711L1124.62 408L1078.84 431.711L1078.84 479.141L1124.62 502.852L1170.4 479.141Z" stroke="#84CDB3" stroke-width="1.54" stroke-linecap="round" stroke-linejoin="round"/>
<path d="M620.908 958.288V955.784M1078.67 530.256V527.746M664.508 887.294L666.687 886.169M802.926 673.08L805.097 671.956M1122.27 460.252L1124.44 459.128M1030.72 552.831L1032.89 553.963M665.597 837.918L667.768 839.043M528.254 482.266L530.425 483.397M939.166 552.838L941.344 553.969M847.608 552.838L849.787 553.969V555.917M849.787 555.917V553.969L851.965 552.838M527.142 623.966L529.313 625.097V627.052M529.313 627.052V625.097L531.492 623.966M760.378 602.548L758.199 601.417V599.469M758.199 599.469V601.417L756.021 602.548M668.82 460.286L666.649 459.161V457.207M666.649 457.207V459.161L664.471 460.286M485.72 460.286L483.542 459.161V457.207M483.542 457.207V459.161L481.363 460.286M485.72 744.81L483.542 743.679V741.725M483.542 741.725V743.646L481.363 744.777M577.308 887.033L575.129 885.908V883.954M575.129 883.954V885.908L572.951 887.033" stroke="#46484A" stroke-width="3.86" stroke-linecap="round" stroke-linejoin="round"/>
</g>
</g>
</g>
<defs>
<clipPath id="clip0_226_7021">
<rect width="1442" height="554" fill="white" transform="translate(-499)"/>
</clipPath>
</defs>
</svg>
