<svg width="854" height="554" viewBox="0 0 854 554" fill="none" xmlns="http://www.w3.org/2000/svg">
<mask id="mask0_226_7801" style="mask-type:alpha" maskUnits="userSpaceOnUse" x="135" y="-33" width="955" height="406">
<rect opacity="0.8" x="135" y="-33" width="955" height="406" fill="white"/>
</mask>
<g mask="url(#mask0_226_7801)">
<g opacity="0.29">
<path d="M168 285.45L213.771 261.743L259.55 285.45V332.871L213.771 356.578M259.55 285.45L213.771 261.743V214.322M259.55 190.608L305.329 214.322V261.743M351.1 285.45L305.329 261.743V214.322M396.879 261.743V214.322L351.1 190.608M488.429 261.743L534.208 285.45V332.871L488.429 356.578L442.658 332.871V285.45M442.658 285.45L396.879 261.743V214.322L442.658 190.608L488.429 214.322V261.743M488.429 72.0598L534.208 48.3527L579.986 72.0598V119.481L534.208 143.188L488.429 119.481M625.788 190.608V143.188L671.559 119.481L717.338 143.188V190.608L671.559 214.322M488.451 261.743V214.322L534.23 190.608L580.009 214.322V261.743L534.23 285.45M625.788 -141.33L671.559 -165.037L717.338 -141.33V-93.9096L671.559 -70.1959L625.788 -93.9096M671.559 -22.7818L717.338 0.931915V48.3527L671.559 72.0598L625.788 48.3527M625.788 143.188L580.009 119.481V72.0598L625.788 48.3527L671.559 72.0598V119.481M671.559 214.322V261.743L625.788 285.45L580.009 261.743V214.322L625.788 190.608M625.788 332.871V285.45L671.559 261.743L717.338 285.45V332.871L671.559 356.578M808.888 -283.586V-236.165L763.064 -212.445M763.064 -70.1825V-22.7684L717.285 0.945314L671.507 -22.7684V-70.1959L717.285 -93.9096M671.507 119.481V72.0598L717.285 48.3527L763.064 72.0598V119.481L717.285 143.188M763.064 -212.445V-165.024L717.285 -141.317L671.507 -165.024V-212.445M808.835 -141.317L763.064 -165.037V-212.445L808.835 -236.152L854.644 -212.445V-165.024M900.445 0.931915V48.3527L854.666 72.0598L808.888 48.3527V0.931915L854.666 -22.7818M854.666 119.481L900.445 143.188V190.608L854.666 214.322L808.888 190.608M808.888 190.608L854.666 214.322V261.743L808.888 285.45L763.064 261.743M351.1 285.45V332.871L305.329 356.578L259.55 332.871V285.45L305.329 261.743L351.1 285.45ZM442.658 285.45V332.871L396.879 356.578L351.1 332.871V285.45L396.879 261.743L442.658 285.45ZM534.208 143.188V190.608L488.429 214.322L442.658 190.608V143.188L488.429 119.481L534.208 143.188ZM808.865 143.188V190.608L763.064 214.322L717.285 190.608V143.188L763.064 119.481L808.865 143.188ZM625.788 143.188V190.608L580.009 214.322L534.23 190.608V143.188L580.009 119.481L625.788 143.188ZM625.788 285.45V332.871L580.009 356.578L534.23 332.871V285.45L580.009 261.743L625.788 285.45ZM717.338 -236.165V-283.586L763.064 -307.3L808.835 -283.586V-236.165L763.064 -212.445L717.338 -236.165ZM900.423 -141.317V-93.9096L854.644 -70.1959L808.865 -93.9096V-141.33L854.644 -165.037L900.423 -141.317ZM625.788 0.931915V48.3527L580.009 72.0598L534.23 48.3527V0.931915L580.009 -22.7818L625.788 0.931915ZM854.666 -70.1959V-22.7818L808.888 0.931915L763.064 -22.7818V-70.1959L808.835 -93.9096L854.666 -70.1959ZM900.393 285.45V332.871L854.614 356.578L808.835 332.871V285.45L854.614 261.743L900.393 285.45Z" stroke="#84CDB3" stroke-width="1.54" stroke-linecap="round" stroke-linejoin="round"/>
<path d="M671.536 -213.71V-211.207M213.771 214.322V216.832M627.936 -142.716L625.758 -141.592M489.518 71.4975L487.347 72.6219M170.171 284.325L168 285.45M261.729 191.746L259.55 190.615M626.847 -93.3408L624.676 -94.4652M764.191 262.312L762.02 261.181M353.279 191.739L351.1 190.608M444.836 191.739L442.658 190.608V188.661M442.658 188.661V190.608L440.479 191.739M765.302 120.612L763.131 119.48V117.526M763.131 117.526V119.48L760.953 120.612M532.066 142.03L534.245 143.161V145.108M534.245 145.108V143.161L536.423 142.03M623.624 284.292L625.795 285.416V287.371M625.795 287.371V285.416L627.974 284.292M806.724 284.292L808.903 285.416V287.371M808.903 287.371V285.416L811.081 284.292M806.724 -0.232738L808.903 0.898402V2.85278M808.903 2.85278V0.931859L811.081 -0.199281M715.137 -142.455L717.315 -141.33V-139.376M717.315 -139.376V-141.33L719.494 -142.455" stroke="#46484A" stroke-width="3.86" stroke-linecap="round" stroke-linejoin="round"/>
</g>
</g>
<mask id="mask1_226_7801" style="mask-type:alpha" maskUnits="userSpaceOnUse" x="0" y="179" width="955" height="406">
<rect opacity="0.8" y="179" width="955" height="406" fill="white"/>
</mask>
<g mask="url(#mask1_226_7801)">
<g opacity="0.29">
<path d="M350.999 479.141L396.771 502.852L442.55 479.141V431.711L396.771 408M442.55 479.141L396.771 502.852L396.771 550.282M442.55 574L488.329 550.282L488.329 502.852M534.1 479.141L488.329 502.852L488.329 550.282M579.879 502.852L579.879 550.282L534.1 574M671.43 502.852L717.209 479.141V431.711L671.43 408L625.658 431.711V479.141M625.658 479.141L579.879 502.852L579.879 550.282L625.658 574L671.43 550.282V502.852M671.43 692.57L717.209 716.282L762.988 692.57V645.141L717.209 621.43L671.43 645.141M808.79 574V621.43L854.561 645.141L900.34 621.43V574L854.561 550.282M671.452 502.852V550.282L717.231 574L763.011 550.282V502.852L717.231 479.141M808.79 906L854.561 929.711L900.34 906L900.34 858.57L854.561 834.852L808.79 858.57M854.561 787.43L900.34 763.711V716.282L854.561 692.57L808.79 716.282M808.79 621.43L763.011 645.141V692.57L808.79 716.282L854.561 692.57V645.141M854.561 550.282V502.852L808.79 479.141L763.011 502.852V550.282L808.79 574M808.79 431.711V479.141L854.561 502.852L900.34 479.141L900.34 431.711L854.561 408M991.891 1048.28V1000.85L946.067 977.128M946.067 834.839V787.416L900.288 763.698L854.509 787.416V834.852L900.288 858.57M854.509 645.141V692.57L900.288 716.282L946.067 692.57V645.141L900.288 621.43M946.067 977.128V929.698L900.288 905.987L854.509 929.698V977.128M991.839 905.987L946.067 929.711V977.128L991.839 1000.84L1037.65 977.128V929.698M1083.45 763.711V716.282L1037.67 692.57L991.891 716.282V763.711L1037.67 787.43M1037.67 645.141L1083.45 621.43V574L1037.67 550.282L991.891 574M991.891 574L1037.67 550.282V502.852L991.891 479.141L946.067 502.852M534.1 479.141V431.711L488.329 408L442.55 431.711V479.141L488.329 502.852L534.1 479.141ZM625.658 479.141V431.711L579.879 408L534.1 431.711V479.141L579.879 502.852L625.658 479.141ZM717.209 621.43V574L671.43 550.282L625.658 574V621.43L671.43 645.141L717.209 621.43ZM991.869 621.43V574L946.067 550.282L900.288 574V621.43L946.067 645.141L991.869 621.43ZM808.79 621.43V574L763.011 550.282L717.231 574V621.43L763.011 645.141L808.79 621.43ZM808.79 479.141V431.711L763.011 408L717.231 431.711V479.141L763.011 502.852L808.79 479.141ZM900.34 1000.85V1048.28L946.067 1072L991.839 1048.28V1000.85L946.067 977.128L900.34 1000.85ZM1083.43 905.987V858.57L1037.65 834.852L991.869 858.57L991.869 906L1037.65 929.711L1083.43 905.987ZM808.79 763.711V716.282L763.011 692.57L717.231 716.282V763.711L763.011 787.43L808.79 763.711ZM1037.67 834.852V787.43L991.891 763.711L946.067 787.43V834.852L991.839 858.57L1037.67 834.852ZM1083.4 479.141L1083.4 431.711L1037.62 408L991.839 431.711L991.839 479.141L1037.62 502.852L1083.4 479.141Z" stroke="#84CDB3" stroke-width="1.54" stroke-linecap="round" stroke-linejoin="round"/>
<path d="M533.908 958.288V955.784M991.673 530.256V527.746M577.508 887.294L579.687 886.169M715.926 673.08L718.097 671.956M1035.27 460.252L1037.44 459.128M943.716 552.831L945.894 553.963M578.597 837.918L580.768 839.043M441.254 482.266L443.425 483.397M852.166 552.838L854.344 553.969M760.608 552.838L762.787 553.969V555.917M762.787 555.917V553.969L764.965 552.838M440.142 623.966L442.313 625.097V627.052M442.313 627.052V625.097L444.492 623.966M673.378 602.548L671.199 601.417V599.469M671.199 599.469V601.417L669.021 602.548M581.82 460.286L579.649 459.161V457.207M579.649 457.207V459.161L577.471 460.286M398.72 460.286L396.542 459.161V457.207M396.542 457.207V459.161L394.363 460.286M398.72 744.81L396.542 743.679V741.725M396.542 741.725V743.646L394.363 744.777M490.308 887.033L488.129 885.908V883.954M488.129 883.954V885.908L485.951 887.033" stroke="#46484A" stroke-width="3.86" stroke-linecap="round" stroke-linejoin="round"/>
</g>
</g>
</svg>
