<svg width="31" height="31" viewBox="0 0 31 31" fill="none" xmlns="http://www.w3.org/2000/svg">
<rect width="31" height="31" fill="#80CCBF"/>
<path d="M11.2778 6C8.36339 6 6 8.239 6 11V19C6 21.761 8.36339 24 11.2778 24H19.7222C22.6366 24 25 21.761 25 19V11C25 8.239 22.6366 6 19.7222 6H11.2778ZM21.8333 8C22.416 8 22.8889 8.448 22.8889 9C22.8889 9.552 22.416 10 21.8333 10C21.2507 10 20.7778 9.552 20.7778 9C20.7778 8.448 21.2507 8 21.8333 8ZM15.5 10C18.4144 10 20.7778 12.239 20.7778 15C20.7778 17.761 18.4144 20 15.5 20C12.5856 20 10.2222 17.761 10.2222 15C10.2222 12.239 12.5856 10 15.5 10ZM15.5 12C14.6601 12 13.8547 12.3161 13.2608 12.8787C12.667 13.4413 12.3333 14.2044 12.3333 15C12.3333 15.7956 12.667 16.5587 13.2608 17.1213C13.8547 17.6839 14.6601 18 15.5 18C16.3399 18 17.1453 17.6839 17.7392 17.1213C18.333 16.5587 18.6667 15.7956 18.6667 15C18.6667 14.2044 18.333 13.4413 17.7392 12.8787C17.1453 12.3161 16.3399 12 15.5 12Z" fill="#003A5D"/>
</svg>
