<svg width="739" height="737" viewBox="0 0 739 737" fill="none" xmlns="http://www.w3.org/2000/svg">
<g clip-path="url(#clip0_319_587)">
<mask id="mask0_319_587" style="mask-type:alpha" maskUnits="userSpaceOnUse" x="-17" y="-317" width="955" height="406">
<rect opacity="0.8" x="-17" y="-317" width="955" height="406" fill="white"/>
</mask>
<g mask="url(#mask0_319_587)">
<g opacity="0.29">
<path d="M16 1.4499L61.7713 -22.2572L107.55 1.4499V48.8707L61.7713 72.5777M107.55 1.4499L61.7713 -22.2572V-69.6779M107.55 -93.3916L153.329 -69.6779V-22.2572M199.1 1.4499L153.329 -22.2572V-69.6779M244.879 -22.2572V-69.6779L199.1 -93.3916M336.429 -22.2572L382.208 1.4499V48.8707L336.429 72.5777L290.658 48.8707V1.4499M290.658 1.4499L244.879 -22.2572V-69.6779L290.658 -93.3916L336.429 -69.6779V-22.2572M336.429 -211.94L382.208 -235.647L427.986 -211.94V-164.519L382.208 -140.812L336.429 -164.519M473.788 -93.3916V-140.812L519.559 -164.519L565.338 -140.812V-93.3916L519.559 -69.6779M336.451 -22.2572V-69.6779L382.23 -93.3916L428.009 -69.6779V-22.2572L382.23 1.4499M473.788 -425.33L519.559 -449.037L565.338 -425.33V-377.91L519.559 -354.196L473.788 -377.91M519.559 -306.782L565.338 -283.068V-235.647L519.559 -211.94L473.788 -235.647M473.788 -140.812L428.009 -164.519V-211.94L473.788 -235.647L519.559 -211.94V-164.519M519.559 -69.6779V-22.2572L473.788 1.4499L428.009 -22.2572V-69.6779L473.788 -93.3916M473.788 48.8707V1.4499L519.559 -22.2572L565.338 1.4499V48.8707L519.559 72.5777M656.888 -567.586V-520.165L611.064 -496.445M611.064 -354.183V-306.768L565.285 -283.055L519.507 -306.768V-354.196L565.285 -377.91M519.507 -164.519V-211.94L565.285 -235.647L611.064 -211.94V-164.519L565.285 -140.812M611.064 -496.445V-449.024L565.285 -425.317L519.507 -449.024V-496.445M656.835 -425.317L611.064 -449.037V-496.445L656.835 -520.152L702.644 -496.445V-449.024M748.445 -283.068V-235.647L702.666 -211.94L656.888 -235.647V-283.068L702.666 -306.782M702.666 -164.519L748.445 -140.812V-93.3916L702.666 -69.6779L656.888 -93.3916M656.888 -93.3916L702.666 -69.6779V-22.2572L656.888 1.4499L611.064 -22.2572M199.1 1.4499V48.8707L153.329 72.5777L107.55 48.8707V1.4499L153.329 -22.2572L199.1 1.4499ZM290.658 1.4499V48.8707L244.879 72.5777L199.1 48.8707V1.4499L244.879 -22.2572L290.658 1.4499ZM382.208 -140.812V-93.3916L336.429 -69.6779L290.658 -93.3916V-140.812L336.429 -164.519L382.208 -140.812ZM656.865 -140.812V-93.3916L611.064 -69.6779L565.285 -93.3916V-140.812L611.064 -164.519L656.865 -140.812ZM473.788 -140.812V-93.3916L428.009 -69.6779L382.23 -93.3916V-140.812L428.009 -164.519L473.788 -140.812ZM473.788 1.4499V48.8707L428.009 72.5777L382.23 48.8707V1.4499L428.009 -22.2572L473.788 1.4499ZM565.338 -520.165V-567.586L611.064 -591.3L656.835 -567.586V-520.165L611.064 -496.445L565.338 -520.165ZM748.423 -425.317V-377.91L702.644 -354.196L656.865 -377.91V-425.33L702.644 -449.037L748.423 -425.317ZM473.788 -283.068V-235.647L428.009 -211.94L382.23 -235.647V-283.068L428.009 -306.782L473.788 -283.068ZM702.666 -354.196V-306.782L656.888 -283.068L611.064 -306.782V-354.196L656.835 -377.91L702.666 -354.196ZM748.393 1.4499V48.8707L702.614 72.5777L656.835 48.8707V1.4499L702.614 -22.2572L748.393 1.4499Z" stroke="#84CDB3" stroke-width="1.54" stroke-linecap="round" stroke-linejoin="round"/>
<path d="M519.536 -497.71V-495.207M61.7713 -69.6779V-67.168M475.936 -426.716L473.758 -425.592M337.518 -212.503L335.347 -211.378M18.1711 0.325437L16 1.44992M109.729 -92.2538L107.55 -93.385M474.847 -377.341L472.676 -378.465M612.191 -21.6883L610.02 -22.8194M201.279 -92.2605L199.1 -93.3917M292.836 -92.2605L290.658 -93.3917V-95.3393M290.658 -95.3393V-93.3917L288.479 -92.2605M613.302 -163.388L611.131 -164.52V-166.474M611.131 -166.474V-164.52L608.953 -163.388M380.066 -141.97L382.245 -140.839V-138.892M382.245 -138.892V-140.839L384.423 -141.97M471.624 0.29202L473.795 1.41642V3.37084M473.795 3.37084V1.41642L475.974 0.29202M654.724 0.29202L656.903 1.41642V3.37084M656.903 3.37084V1.41642L659.081 0.29202M654.724 -284.233L656.903 -283.102V-281.147M656.903 -281.147V-283.068L659.081 -284.199M563.137 -426.455L565.315 -425.33V-423.376M565.315 -423.376V-425.33L567.494 -426.455" stroke="#46484A" stroke-width="3.86" stroke-linecap="round" stroke-linejoin="round"/>
</g>
</g>
<g opacity="0.29">
<path d="M8 665.75L53.7713 642.043L99.55 665.75V713.17L53.7713 736.878M99.55 665.75L53.7713 642.043V594.622M99.55 570.908L145.329 594.622V642.043M191.1 665.75L145.329 642.043V594.622M236.879 642.043V594.622L191.1 570.908M328.429 642.043L374.208 665.75V713.17L328.429 736.878L282.658 713.17V665.75M282.658 665.75L236.879 642.043V594.622L282.658 570.908L328.429 594.622V642.043M328.429 452.36L374.208 428.653L419.986 452.36V499.78L374.208 523.487L328.429 499.78M465.788 570.908V523.487L511.559 499.78L557.338 523.487V570.908L511.559 594.622M328.451 642.043V594.622L374.23 570.908L420.009 594.622V642.043L374.23 665.75M465.788 238.969L511.559 215.262L557.338 238.969V286.39L511.559 310.104L465.788 286.39M511.559 357.518L557.338 381.232V428.653L511.559 452.36L465.788 428.653M465.788 523.487L420.009 499.78V452.36L465.788 428.653L511.559 452.36V499.78M511.559 594.622V642.043L465.788 665.75L420.009 642.043V594.622L465.788 570.908M465.788 713.17V665.75L511.559 642.043L557.338 665.75V713.17L511.559 736.878M648.888 96.7137V144.135L603.064 167.855M603.064 310.117V357.531L557.285 381.245L511.507 357.531V310.104L557.285 286.39M511.507 499.78V452.36L557.285 428.653L603.064 452.36V499.78L557.285 523.487M603.064 167.855V215.276L557.285 238.983L511.507 215.276V167.855M648.835 238.983L603.064 215.262V167.855L648.835 144.148L694.644 167.855V215.276M740.445 381.232V428.653L694.666 452.36L648.888 428.653V381.232L694.666 357.518M694.666 499.78L740.445 523.487V570.908L694.666 594.622L648.888 570.908M648.888 570.908L694.666 594.622V642.043L648.888 665.75L603.064 642.043M191.1 665.75V713.17L145.329 736.878L99.55 713.17V665.75L145.329 642.043L191.1 665.75ZM282.658 665.75V713.17L236.879 736.878L191.1 713.17V665.75L236.879 642.043L282.658 665.75ZM374.208 523.487V570.908L328.429 594.622L282.658 570.908V523.487L328.429 499.78L374.208 523.487ZM648.865 523.487V570.908L603.064 594.622L557.285 570.908V523.487L603.064 499.78L648.865 523.487ZM465.788 523.487V570.908L420.009 594.622L374.23 570.908V523.487L420.009 499.78L465.788 523.487ZM465.788 665.75V713.17L420.009 736.878L374.23 713.17V665.75L420.009 642.043L465.788 665.75ZM557.338 144.135V96.7137L603.064 73L648.835 96.7137V144.135L603.064 167.855L557.338 144.135ZM740.423 238.983V286.39L694.644 310.104L648.865 286.39V238.969L694.644 215.262L740.423 238.983ZM465.788 381.232V428.653L420.009 452.36L374.23 428.653V381.232L420.009 357.518L465.788 381.232ZM694.666 310.104V357.518L648.888 381.232L603.064 357.518V310.104L648.835 286.39L694.666 310.104ZM740.393 665.75V713.17L694.614 736.878L648.835 713.17V665.75L694.614 642.043L740.393 665.75Z" stroke="#84CDB3" stroke-width="1.54" stroke-linecap="round" stroke-linejoin="round"/>
<path d="M519.536 166.59V169.093M61.7713 594.622V597.132M475.936 237.584L473.758 238.708M337.518 451.797L335.347 452.922M18.1711 664.625L16 665.75M109.729 572.046L107.55 570.915M474.847 286.959L472.676 285.835M612.191 642.612L610.02 641.48M201.279 572.039L199.1 570.908M292.836 572.039L290.658 570.908V568.96M290.658 568.96V570.908L288.479 572.039M613.302 500.911L611.131 499.78V497.826M611.131 497.826V499.78L608.953 500.911M380.066 522.329L382.245 523.461V525.408M382.245 525.408V523.461L384.423 522.329M471.624 664.592L473.795 665.716V667.671M473.795 667.671V665.716L475.974 664.592M654.724 664.592L656.903 665.716V667.671M656.903 667.671V665.716L659.081 664.592M654.724 380.067L656.903 381.198V383.153M656.903 383.153V381.232L659.081 380.101M563.137 237.845L565.315 238.969V240.924M565.315 240.924V238.969L567.494 237.845" stroke="#46484A" stroke-width="3.86" stroke-linecap="round" stroke-linejoin="round"/>
</g>
</g>
<defs>
<clipPath id="clip0_319_587">
<rect width="739" height="737" fill="white"/>
</clipPath>
</defs>
</svg>
