<svg width="768" height="877" viewBox="0 0 768 877" fill="none" xmlns="http://www.w3.org/2000/svg">
<g opacity="0.5" clip-path="url(#clip0_226_7067)">
<mask id="mask0_226_7067" style="mask-type:alpha" maskUnits="userSpaceOnUse" x="28" y="-177" width="955" height="406">
<rect opacity="0.8" x="28" y="-177" width="955" height="406" fill="white"/>
</mask>
<g mask="url(#mask0_226_7067)">
<g opacity="0.29">
<path d="M61 141.45L106.771 117.743L152.55 141.45V188.871L106.771 212.578M152.55 141.45L106.771 117.743V70.3221M152.55 46.6084L198.329 70.3221V117.743M244.1 141.45L198.329 117.743V70.3221M289.879 117.743V70.3221L244.1 46.6084M381.429 117.743L427.208 141.45V188.871L381.429 212.578L335.658 188.871V141.45M335.658 141.45L289.879 117.743V70.3221L335.658 46.6084L381.429 70.3221V117.743M381.429 -71.9402L427.208 -95.6473L472.986 -71.9402V-24.5195L427.208 -0.81239L381.429 -24.5195M518.788 46.6084V-0.81239L564.559 -24.5195L610.338 -0.81239V46.6084L564.559 70.3221M381.451 117.743V70.3221L427.23 46.6084L473.009 70.3221V117.743L427.23 141.45M518.788 -285.33L564.559 -309.037L610.338 -285.33V-237.91L564.559 -214.196L518.788 -237.91M564.559 -166.782L610.338 -143.068V-95.6473L564.559 -71.9402L518.788 -95.6473M518.788 -0.81239L473.009 -24.5195V-71.9402L518.788 -95.6473L564.559 -71.9402V-24.5195M564.559 70.3221V117.743L518.788 141.45L473.009 117.743V70.3221L518.788 46.6084M518.788 188.871V141.45L564.559 117.743L610.338 141.45V188.871L564.559 212.578M701.888 -427.586V-380.165L656.064 -356.445M656.064 -214.183V-166.768L610.285 -143.055L564.507 -166.768V-214.196L610.285 -237.91M564.507 -24.5195V-71.9402L610.285 -95.6473L656.064 -71.9402V-24.5195L610.285 -0.81239M656.064 -356.445V-309.024L610.285 -285.317L564.507 -309.024V-356.445M701.835 -285.317L656.064 -309.037V-356.445L701.835 -380.152L747.644 -356.445V-309.024M793.445 -143.068V-95.6473L747.666 -71.9402L701.888 -95.6473V-143.068L747.666 -166.782M747.666 -24.5195L793.445 -0.81239V46.6084L747.666 70.3221L701.888 46.6084M701.888 46.6084L747.666 70.3221V117.743L701.888 141.45L656.064 117.743M244.1 141.45V188.871L198.329 212.578L152.55 188.871V141.45L198.329 117.743L244.1 141.45ZM335.658 141.45V188.871L289.879 212.578L244.1 188.871V141.45L289.879 117.743L335.658 141.45ZM427.208 -0.81239V46.6084L381.429 70.3221L335.658 46.6084V-0.81239L381.429 -24.5195L427.208 -0.81239ZM701.865 -0.81239V46.6084L656.064 70.3221L610.285 46.6084V-0.81239L656.064 -24.5195L701.865 -0.81239ZM518.788 -0.81239V46.6084L473.009 70.3221L427.23 46.6084V-0.81239L473.009 -24.5195L518.788 -0.81239ZM518.788 141.45V188.871L473.009 212.578L427.23 188.871V141.45L473.009 117.743L518.788 141.45ZM610.338 -380.165V-427.586L656.064 -451.3L701.835 -427.586V-380.165L656.064 -356.445L610.338 -380.165ZM793.423 -285.317V-237.91L747.644 -214.196L701.865 -237.91V-285.33L747.644 -309.037L793.423 -285.317ZM518.788 -143.068V-95.6473L473.009 -71.9402L427.23 -95.6473V-143.068L473.009 -166.782L518.788 -143.068ZM747.666 -214.196V-166.782L701.888 -143.068L656.064 -166.782V-214.196L701.835 -237.91L747.666 -214.196ZM793.393 141.45V188.871L747.614 212.578L701.835 188.871V141.45L747.614 117.743L793.393 141.45Z" stroke="#84CDB3" stroke-width="1.54" stroke-linecap="round" stroke-linejoin="round"/>
<path d="M564.536 -357.71V-355.207M106.771 70.3221V72.832M520.936 -286.716L518.758 -285.592M382.518 -72.5025L380.347 -71.3781M63.1711 140.325L61 141.45M154.729 47.7462L152.55 46.615M519.847 -237.341L517.676 -238.465M657.191 118.312L655.02 117.181M246.279 47.7395L244.1 46.6083M337.836 47.7395L335.658 46.6083V44.6607M335.658 44.6607V46.6083L333.479 47.7395M658.302 -23.3884L656.131 -24.5195V-26.4739M656.131 -26.4739V-24.5195L653.953 -23.3884M425.066 -1.97038L427.245 -0.83924V1.10848M427.245 1.10848V-0.83924L429.423 -1.97038M516.624 140.292L518.795 141.416V143.371M518.795 143.371V141.416L520.974 140.292M699.724 140.292L701.903 141.416V143.371M701.903 143.371V141.416L704.081 140.292M699.724 -144.233L701.903 -143.102V-141.147M701.903 -141.147V-143.068L704.081 -144.199M608.137 -286.455L610.315 -285.33V-283.376M610.315 -283.376V-285.33L612.494 -286.455" stroke="#46484A" stroke-width="3.86" stroke-linecap="round" stroke-linejoin="round"/>
</g>
</g>
<g opacity="0.29">
<path d="M61 805.75L106.771 782.043L152.55 805.75V853.17L106.771 876.878M152.55 805.75L106.771 782.043V734.622M152.55 710.908L198.329 734.622V782.043M244.1 805.75L198.329 782.043V734.622M289.879 782.043V734.622L244.1 710.908M381.429 782.043L427.208 805.75V853.17L381.429 876.878L335.658 853.17V805.75M335.658 805.75L289.879 782.043V734.622L335.658 710.908L381.429 734.622V782.043M381.429 592.36L427.208 568.653L472.986 592.36V639.78L427.208 663.487L381.429 639.78M518.788 710.908V663.487L564.559 639.78L610.338 663.487V710.908L564.559 734.622M381.451 782.043V734.622L427.23 710.908L473.009 734.622V782.043L427.23 805.75M518.788 378.969L564.559 355.262L610.338 378.969V426.39L564.559 450.104L518.788 426.39M564.559 497.518L610.338 521.232V568.653L564.559 592.36L518.788 568.653M518.788 663.487L473.009 639.78V592.36L518.788 568.653L564.559 592.36V639.78M564.559 734.622V782.043L518.788 805.75L473.009 782.043V734.622L518.788 710.908M518.788 853.17V805.75L564.559 782.043L610.338 805.75V853.17L564.559 876.878M701.888 236.714V284.135L656.064 307.855M656.064 450.117V497.531L610.285 521.245L564.507 497.531V450.104L610.285 426.39M564.507 639.78V592.36L610.285 568.653L656.064 592.36V639.78L610.285 663.487M656.064 307.855V355.276L610.285 378.983L564.507 355.276V307.855M701.835 378.983L656.064 355.262V307.855L701.835 284.148L747.644 307.855V355.276M793.445 521.232V568.653L747.666 592.36L701.888 568.653V521.232L747.666 497.518M747.666 639.78L793.445 663.487V710.908L747.666 734.622L701.888 710.908M701.888 710.908L747.666 734.622V782.043L701.888 805.75L656.064 782.043M244.1 805.75V853.17L198.329 876.878L152.55 853.17V805.75L198.329 782.043L244.1 805.75ZM335.658 805.75V853.17L289.879 876.878L244.1 853.17V805.75L289.879 782.043L335.658 805.75ZM427.208 663.487V710.908L381.429 734.622L335.658 710.908V663.487L381.429 639.78L427.208 663.487ZM701.865 663.487V710.908L656.064 734.622L610.285 710.908V663.487L656.064 639.78L701.865 663.487ZM518.788 663.487V710.908L473.009 734.622L427.23 710.908V663.487L473.009 639.78L518.788 663.487ZM518.788 805.75V853.17L473.009 876.878L427.23 853.17V805.75L473.009 782.043L518.788 805.75ZM610.338 284.135V236.714L656.064 213L701.835 236.714V284.135L656.064 307.855L610.338 284.135ZM793.423 378.983V426.39L747.644 450.104L701.865 426.39V378.969L747.644 355.262L793.423 378.983ZM518.788 521.232V568.653L473.009 592.36L427.23 568.653V521.232L473.009 497.518L518.788 521.232ZM747.666 450.104V497.518L701.888 521.232L656.064 497.518V450.104L701.835 426.39L747.666 450.104ZM793.393 805.75V853.17L747.614 876.878L701.835 853.17V805.75L747.614 782.043L793.393 805.75Z" stroke="#84CDB3" stroke-width="1.54" stroke-linecap="round" stroke-linejoin="round"/>
<path d="M564.536 306.59V309.093M106.771 734.622V737.132M520.936 377.584L518.758 378.708M382.518 591.797L380.347 592.922M63.1711 804.625L61 805.75M154.729 712.046L152.55 710.915M519.847 426.959L517.676 425.835M657.191 782.612L655.02 781.48M246.279 712.039L244.1 710.908M337.836 712.039L335.658 710.908V708.96M335.658 708.96V710.908L333.479 712.039M658.302 640.911L656.131 639.78V637.826M656.131 637.826V639.78L653.953 640.911M425.066 662.329L427.245 663.461V665.408M427.245 665.408V663.461L429.423 662.329M516.624 804.592L518.795 805.716V807.671M518.795 807.671V805.716L520.974 804.592M699.724 804.592L701.903 805.716V807.671M701.903 807.671V805.716L704.081 804.592M699.724 520.067L701.903 521.198V523.153M701.903 523.153V521.232L704.081 520.101M608.137 377.845L610.315 378.969V380.924M610.315 380.924V378.969L612.494 377.845" stroke="#46484A" stroke-width="3.86" stroke-linecap="round" stroke-linejoin="round"/>
</g>
<rect width="768" height="877" fill="url(#paint0_linear_226_7067)"/>
<rect width="768" height="877" fill="url(#paint1_radial_226_7067)"/>
</g>
<defs>
<linearGradient id="paint0_linear_226_7067" x1="384" y1="0" x2="384" y2="877" gradientUnits="userSpaceOnUse">
<stop stop-color="white" stop-opacity="0.2"/>
<stop offset="0.479167" stop-color="white"/>
<stop offset="1" stop-color="white" stop-opacity="0"/>
</linearGradient>
<radialGradient id="paint1_radial_226_7067" cx="0" cy="0" r="1" gradientUnits="userSpaceOnUse" gradientTransform="translate(384 438.5) rotate(90) scale(438.5 384)">
<stop offset="0.520833" stop-color="white"/>
<stop offset="1" stop-color="white" stop-opacity="0"/>
</radialGradient>
<clipPath id="clip0_226_7067">
<rect width="768" height="877" fill="white"/>
</clipPath>
</defs>
</svg>
