<?xml version="1.0" standalone="no"?>
<!DOCTYPE svg PUBLIC "-//W3C//DTD SVG 20010904//EN"
 "http://www.w3.org/TR/2001/REC-SVG-20010904/DTD/svg10.dtd">
<svg version="1.0" xmlns="http://www.w3.org/2000/svg"
 width="140.000000pt" height="140.000000pt" viewBox="0 0 140.000000 140.000000"
 preserveAspectRatio="xMidYMid meet">
<metadata>
Created by potrace 1.14, written by Peter Selinger 2001-2017
</metadata>
<g transform="translate(0.000000,140.000000) scale(0.100000,-0.100000)"
fill="#000000" stroke="none">
<path d="M76 1151 c-14 -15 -16 -36 -14 -127 l3 -109 630 0 630 0 3 109 c2 91
0 112 -14 127 -16 18 -44 19 -619 19 -575 0 -603 -1 -619 -19z m239 -43 c56
-50 33 -150 -38 -163 -77 -15 -134 56 -103 128 8 19 22 40 33 46 31 18 80 13
108 -11z m205 13 c0 -6 -15 -11 -32 -13 l-33 -3 -3 -82 c-2 -46 -7 -83 -12
-83 -5 0 -10 37 -12 83 l-3 82 -33 3 c-18 2 -30 8 -27 13 8 12 155 12 155 0z
m160 -1 c0 -5 -13 -10 -30 -10 l-29 0 -3 -82 c-2 -52 -7 -83 -15 -85 -9 -3
-13 19 -15 79 -3 82 -3 83 -30 86 -58 7 -25 22 47 22 43 0 75 -4 75 -10z m143
-81 c21 -50 36 -93 33 -96 -8 -9 -27 8 -36 33 -8 20 -17 24 -49 24 -33 0 -40
-4 -51 -30 -13 -31 -30 -40 -30 -16 0 8 9 36 21 63 11 26 27 63 34 81 8 17 20
32 27 32 7 0 30 -41 51 -91z m87 51 c0 -22 4 -40 8 -40 4 0 26 18 47 40 21 22
46 40 54 40 9 0 1 -15 -23 -39 l-38 -39 36 -48 c20 -26 36 -51 36 -55 0 -25
-33 5 -87 80 -8 11 -32 -25 -35 -52 -2 -18 -7 -32 -13 -32 -6 0 -11 39 -13 93
-2 77 0 92 13 92 11 0 15 -11 15 -40z m182 -37 l3 -78 40 0 40 0 5 74 c3 47
10 76 18 79 17 5 17 -138 -1 -162 -7 -9 -31 -20 -54 -23 -33 -4 -45 -1 -62 16
-18 18 -21 33 -21 96 0 59 3 75 15 75 11 0 15 -18 17 -77z"/>
<path d="M216 1094 c-39 -38 -28 -104 19 -126 60 -27 114 73 66 121 -25 25
-63 27 -85 5z"/>
<path d="M757 1073 c-2 -10 -8 -26 -12 -35 -6 -15 -2 -18 24 -18 17 0 31 2 31
4 0 1 -5 17 -11 35 -12 35 -24 40 -32 14z"/>
<path d="M804 781 c-37 -23 -54 -65 -54 -137 0 -49 2 -55 29 -69 16 -8 31 -20
33 -27 3 -7 23 -12 51 -13 37 0 47 -3 44 -15 -2 -11 -15 -15 -45 -15 -34 0
-39 -2 -27 -11 16 -12 20 -34 6 -34 -13 0 -31 25 -41 57 l-8 28 -1 -26 c-1
-15 8 -37 18 -50 17 -21 22 -22 41 -11 17 10 25 11 36 1 22 -18 54 16 53 55
l-1 31 -8 -33 c-9 -39 -24 -57 -39 -48 -17 11 -13 24 9 31 13 4 20 15 20 30 0
15 11 32 30 45 29 20 30 25 29 88 -1 37 -4 57 -6 45 -2 -13 -11 -23 -19 -23
-10 0 -14 -13 -14 -49 0 -42 -4 -53 -26 -70 -57 -44 -124 -7 -124 69 0 35 3
40 23 40 12 0 35 7 51 15 20 11 33 12 40 5 19 -19 29 -10 12 9 -18 19 -18 19
-49 0 -18 -10 -49 -19 -71 -19 -37 0 -38 1 -32 28 4 15 20 39 37 55 45 41 110
35 151 -17 10 -11 18 -16 18 -9 0 6 -14 23 -31 37 -37 32 -90 34 -135 7z m-24
-133 c0 -16 -3 -19 -11 -11 -6 6 -8 16 -5 22 11 17 16 13 16 -11z m190 -4 c0
-8 -4 -14 -10 -14 -5 0 -10 9 -10 21 0 11 5 17 10 14 6 -3 10 -13 10 -21z
m-187 -45 c4 -16 3 -18 -9 -8 -16 13 -19 29 -5 29 5 0 11 -9 14 -21z m178 -12
c-8 -8 -11 -7 -11 4 0 20 13 34 18 19 3 -7 -1 -17 -7 -23z"/>
<path d="M1060 603 c70 -5 87 -11 93 -32 8 -30 -8 -44 -60 -52 l-48 -6 47 -2
c34 -1 50 -6 57 -19 17 -32 -5 -52 -55 -52 -29 0 -43 -4 -39 -11 4 -6 19 -7
35 -4 21 5 34 1 49 -14 35 -35 17 -54 -64 -64 -17 -2 -7 -5 23 -6 47 -1 54 1
64 25 9 19 9 30 0 44 -9 14 -9 26 -1 43 8 18 8 30 -1 47 -9 16 -9 25 -1 33 16
16 13 42 -7 60 -14 12 -35 17 -78 15 -51 -1 -53 -2 -14 -5z"/>
<path d="M850 588 c0 -11 28 -10 35 1 3 6 -4 9 -15 8 -11 -1 -20 -5 -20 -9z"/>
<path d="M1078 573 c52 -5 55 -20 5 -26 -33 -4 -32 -4 7 -3 33 1 45 5 45 16 0
11 -13 15 -50 16 -45 1 -46 1 -7 -3z"/>
<path d="M1055 491 c-3 -6 14 -12 37 -14 l43 -4 -42 -1 c-55 -2 -57 -22 -3
-22 43 0 66 24 39 41 -19 12 -66 11 -74 0z"/>
<path d="M745 480 c-35 -14 -46 -36 -43 -87 l3 -48 160 0 160 0 3 56 c3 52 1
56 -25 69 -41 21 -49 24 -41 15 4 -4 1 -20 -8 -36 -14 -28 -18 -29 -84 -29
-63 0 -71 2 -86 25 -8 13 -13 29 -9 35 7 12 -2 12 -30 0z m120 -70 c74 0 76 1
93 30 24 42 35 37 28 -12 l-6 -43 13 38 c15 49 27 38 27 -25 0 -41 -3 -48 -20
-48 -12 0 -20 7 -21 18 -1 16 -2 16 -6 0 -4 -16 -18 -18 -103 -18 -54 0 -101
4 -104 8 -3 5 -8 33 -11 63 l-7 54 21 -32 c20 -32 22 -33 96 -33z m-120 -12
c7 -44 6 -48 -14 -48 -18 0 -21 6 -21 48 0 81 23 81 35 0z"/>
<path d="M1083 403 c20 -2 37 -8 37 -13 0 -5 -17 -11 -37 -13 -33 -4 -32 -4 7
-3 33 1 45 5 45 16 0 11 -12 15 -45 16 -39 1 -40 1 -7 -3z"/>
</g>
</svg>
